PathFileType	3	(X/Y/Z)	C:\Users\koon_\Desktop\
DataRate	CameraRate	NumFrames	NumMarkers	Units	OrigDataRate	OrigDataStartFrame	OrigNumFrames
100.0	100.0	4	27	mm	100.0	2479	3304	
Frame#	Time	GM:LFHD			GM:RFHD			GM:LBHD			GM:RBHD			GM:C7			GM:T10			GM:CLAV			GM:STRN			GM:RBAK			GM:LSHO			GM:LUPA			GM:LELB			GM:LFRA			GM:LWRA			GM:LWRB			GM:LFIN			GM:RSHO			GM:RUPA			GM:RELB			GM:RFRA			GM:RWRA			GM:RWRB			GM:RFIN			GM:LASI			GM:RASI			GM:LPSI			GM:RPSI			
		X1	Y1	Z1	X2	Y2	Z2	X3	Y3	Z3	X4	Y4	Z4	X5	Y5	Z5	X6	Y6	Z6	X7	Y7	Z7	X8	Y8	Z8	X9	Y9	Z9	X10	Y10	Z10	X11	Y11	Z11	X12	Y12	Z12	X13	Y13	Z13	X14	Y14	Z14	X15	Y15	Z15	X16	Y16	Z16	X17	Y17	Z17	X18	Y18	Z18	X19	Y19	Z19	X20	Y20	Z20	X21	Y21	Z21	X22	Y22	Z22	X23	Y23	Z23	X24	Y24	Z24	X25	Y25	Z25	X26	Y26	Z26	X27	Y27	Z27	
2479	24.78	307.76907	1493.6191	-129.87242	203.57323	1483.6799	-14.851751	208.43617	1524.153	-214.72444	113.2401	1509.6508	-81.710091	107.96579	1374.9305	-226.3474	43.885548	1205.7488	-313.82764	205.49832	1274.4894	-132.0343	191.52792	1122.1932	-125.66125	-3.4715607	1291.9813	-188.78761	255.75238	1355.5138	-273.73703	342.87686	1371.2158	-277.42487	531.22296	1348.3282	-225.76224	589.29218	1439.4757	-124.99209	644.59888	1476.6188	-90.935257	684.68829	1425.173	-94.377235	738.09497	1490.1417	-46.687904	87.065857	1378.7557	-57.467144	185.98695	1372.7705	91.255112	236.90094	1348.2014	175.83162	297.01129	1420.4426	166.70003	409.54178	1465.0431	228.80629	425.00348	1411.286	252.33669	485.66467	1468.343	294.06686	215.14037	852.41705	-209.088	-60.933193	878.56824	-116.72992	89.098709	892.95215	-383.3349	-61.85807	900.52789	-342.88232
2480	24.79	307.66769	1492.8744	-128.82492	202.95018	1482.787	-14.203876	208.79135	1523.5353	-214.07138	113.26472	1509.0608	-81.903923	108.3202	1374.2203	-226.1813	44.296856	1205.2184	-314.21271	205.2778	1273.7012	-131.57764	191.25427	1121.5181	-125.48445	-3.3930297	1291.4321	-189.25385	256.0235	1354.8751	-273.23962	343.16687	1370.5405	-276.88724	531.53247	1347.408	-225.02473	589.17365	1438.2867	-123.61176	644.36407	1475.4465	-89.492455	684.60181	1424.104	-92.923965	737.73425	1488.9541	-44.920853	86.658852	1378.0463	-57.583889	184.79129	1371.6501	91.78186	235.2636	1347.1025	176.42598	295.84079	1419.1866	167.38368	408.29813	1463.5084	229.72775	424.02063	1409.9359	254.8654	484.39365	1466.6304	295.0773	215.19785	851.9989	-209.17459	-61.115757	878.06525	-117.388	89.518593	892.47583	-383.63214	-61.464546	899.98608	-343.50757
2481	24.8	306.96353	1492.2839	-127.21288	202.1886	1481.8973	-13.631953	209.00748	1522.9547	-213.46416	112.58079	1508.0856	-81.479042	108.4782	1373.7274	-226.26973	44.706581	1204.7206	-314.53766	204.96927	1273.0977	-131.22845	190.92926	1120.8938	-125.32702	-3.4596591	1290.8386	-189.81818	256.15756	1354.3605	-272.8049	343.3653	1369.9142	-276.23071	531.76276	1346.3787	-224.22729	589.46887	1437.3267	-123.106	644.14331	1474.2649	-88.224205	684.35938	1422.8909	-91.407761	737.29584	1487.6847	-43.316185	86.17585	1377.4089	-57.666882	183.43712	1370.568	92.404495	233.63646	1346.0006	176.99582	294.39456	1417.8633	168.04555	406.83463	1461.953	230.62395	422.37909	1408.4371	255.86935	482.79993	1465.1212	296.12564	215.26065	851.62372	-209.19987	-61.324345	877.55237	-118.107	89.950317	891.95612	-384.03168	-61.11795	899.44269	-344.14441
2482	24.81	306.63626	1491.708	-126.23705	201.3051	1481.1816	-13.095341	209.04128	1522.448	-213.02574	112.16521	1507.5404	-81.739845	108.31403	1373.2998	-226.36157	44.962215	1204.1797	-314.86905	204.44632	1272.6263	-130.87431	190.56686	1120.3555	-125.13475	-3.6296606	1290.2521	-190.3582	256.21402	1353.822	-272.35788	343.43903	1369.2899	-275.54642	531.95874	1345.2737	-223.4799	588.88879	1435.9174	-121.86236	643.99969	1473.0751	-87.222214	684.02106	1421.5592	-90.055374	736.85779	1486.4402	-41.75967	85.500175	1376.7493	-57.82893	181.92427	1369.4446	92.98864	231.84525	1344.8486	177.65273	292.81229	1416.5957	168.68953	405.1767	1460.5901	231.4836	420.52881	1407.032	256.84473	480.93625	1463.7003	297.25513	215.56134	851.3255	-209.32332	-61.556896	877.07275	-118.7027	90.320717	891.41553	-384.33905	-60.765934	898.9118	-344.75784
